<?xml version="1.0" encoding="utf-8"?>
<!-- Generator: Adobe Illustrator 21.0.2, SVG Export Plug-In . SVG Version: 6.00 Build 0)  -->
<svg version="1.1" id="Layer_1" xmlns="http://www.w3.org/2000/svg" xmlns:xlink="http://www.w3.org/1999/xlink" x="0px" y="0px"
	 viewBox="0 0 1218.9 765.4" style="enable-background:new 0 0 1218.9 765.4;" xml:space="preserve">
<style type="text/css">
	.st0{fill:#ED1C24;}
	.st1{fill:#FACB0D;}
	.st2{clip-path:url(#SVGID_2_);}
	.st3{fill:#E92E2F;}
</style>
<g>
	<polyline class="st0" points="1108.5,211 1194.1,211 1194.1,123.9 1108.5,123.9 1108.5,211 	"/>
</g>
<g>
	<polyline class="st1" points="1022.9,211 1108.5,211 1108.5,123.9 1022.9,123.9 1022.9,211 	"/>
</g>
<g>
	<polyline class="st0" points="937.2,211 1022.9,211 1022.9,123.9 937.2,123.9 937.2,211 	"/>
</g>
<g>
	<polyline class="st1" points="1108.5,298 1194.1,298 1194.1,211 1108.5,211 1108.5,298 	"/>
</g>
<g>
	<polyline class="st0" points="1022.9,298 1108.5,298 1108.5,211 1022.9,211 1022.9,298 	"/>
</g>
<g>
	<polyline class="st1" points="937.2,298 1022.9,298 1022.9,211 937.2,211 937.2,298 	"/>
</g>
<g>
	<polyline class="st0" points="1108.5,385.1 1194.1,385.1 1194.1,298 1108.5,298 1108.5,385.1 	"/>
</g>
<g>
	<polyline class="st1" points="1022.9,385.1 1108.5,385.1 1108.5,298 1022.9,298 1022.9,385.1 	"/>
</g>
<g>
	<polyline class="st0" points="937.2,385.1 1022.9,385.1 1022.9,298 937.2,298 937.2,385.1 	"/>
</g>
<g>
	<path class="st0" d="M977.3,720.7h4.8c2.5,0,5.2,0.5,5.2,3.7c0,3.7-2.9,3.9-6.2,3.9h-3.8L977.3,720.7L977.3,720.7z M973.7,741.5
		h3.6v-10.3h3.8l6.4,10.3h3.9l-6.7-10.6c3.5-0.4,6.2-2.2,6.2-6.5c0-4.6-2.6-6.8-8.2-6.8h-9.1L973.7,741.5L973.7,741.5z M964.9,729.5
		c0-9.8,7.2-17.3,16.6-17.3c9.3,0,16.5,7.5,16.5,17.3c0,10-7.2,17.5-16.5,17.5C972.1,747.1,964.9,739.6,964.9,729.5L964.9,729.5z
		 M961.3,729.5c0,11.7,9.2,20.5,20.2,20.5c10.9,0,20.1-8.8,20.1-20.5c0-11.5-9.2-20.3-20.1-20.3C970.5,709.2,961.3,718,961.3,729.5"
		/>
</g>
<g>
	<polyline class="st0" points="189.7,211 275.3,211 275.3,123.9 189.7,123.9 189.7,211 	"/>
</g>
<g>
	<polyline class="st1" points="104.1,211 189.7,211 189.7,123.9 104.1,123.9 104.1,211 	"/>
</g>
<g>
	<polyline class="st0" points="18.5,211 104.1,211 104.1,123.9 18.5,123.9 18.5,211 	"/>
</g>
<g>
	<polyline class="st1" points="189.7,298 275.3,298 275.3,211 189.7,211 189.7,298 	"/>
</g>
<g>
	<polyline class="st0" points="104.1,298 189.7,298 189.7,211 104.1,211 104.1,298 	"/>
</g>
<g>
	<polyline class="st1" points="18.5,298 104.1,298 104.1,211 18.5,211 18.5,298 	"/>
</g>
<g>
	<polyline class="st0" points="189.7,385.1 275.3,385.1 275.3,298 189.7,298 189.7,385.1 	"/>
</g>
<g>
	<polyline class="st1" points="104.1,385.1 189.7,385.1 189.7,298 104.1,298 104.1,385.1 	"/>
</g>
<g>
	<polyline class="st0" points="18.5,385.1 104.1,385.1 104.1,298 18.5,298 18.5,385.1 	"/>
</g>
<g>
	<g>
		<defs>
			<polyline id="SVGID_1_" points="13.6,11.9 13.6,750.1 1198.9,750.1 1198.9,11.9 			"/>
		</defs>
		<clipPath id="SVGID_2_">
			<use xlink:href="#SVGID_1_"  style="overflow:visible;"/>
		</clipPath>
		<g class="st2">
			<path class="st3" d="M937.9,743.1l-105.1-20l-11.8-20l-13.6-22.8l-28.1-14.8l-60.4-3l18.6-18.9l4.4-32.9l-23.3-15l-13.5,21.1
				l-14.7,10.4L666,642.8l-21.1-19.1L676,614l13.6-32.5l11.6-18.1l-12.7-14.8l-67.2,54.5L621,603l-165.4-87.8l-180.9-24.4V16.8
				h663.2V743.1z M833.3,722.4L937,742.1V17.7H275.6V490l180.3,24.3l0.1,0l165.2,87.8l67.4-54.7l13.7,15.9l-11.9,18.6l-13.7,32.8
				l-0.2,0.1l-29.9,9.4l19.5,17.7l23.6-15.2l14.6-10.4l13.8-21.7l24.5,15.8l0,0.3l-4.4,33.4l-17.5,17.8l58.7,2.9l0.1,0l28.4,15
				l0.1,0.1l13.7,22.9L833.3,722.4z"/>
		</g>
	</g>
</g>
<g>
	<polygon class="st1" points="275.2,17.2 275.2,490.4 455.7,514.7 621.2,602.6 688.5,548 701.7,563.4 690,581.7 676.3,614.3 
		645.7,623.9 666.1,642.3 690,626.9 704.7,616.5 718.3,595.1 742.2,610.5 737.8,643.8 719.8,662.1 779.3,665.1 807.6,680 
		821.3,702.9 833,722.8 937.5,742.6 937.5,17.2 	"/>
	<path class="st0" d="M941,746.8l-110.2-20.9l-12.5-21.2l-13.2-22l-26.8-14.1l-66.6-3.3l22.7-23.1l4-29.9L719.4,600l-12.1,19
		l-15.4,10.9l-26.2,16.8l-26.9-24.3l34.9-10.9l13.1-31.4l10.5-16.4l-9.3-10.8l-66.5,53.9l-167-88.7l-183-24.7V13.7H941V746.8z
		 M835.2,719.6l98.7,18.7V20.7H278.7v466.6l178.2,24l164,87.1l68.2-55.3l17.1,19.9l-13,20.3l-14.2,33.9l-26.3,8.3l13.8,12.5L688,624
		l14.1-10l15.2-23.8l28.7,18.5l-4.9,36.7L727.8,659l52.5,2.6l29.9,15.7l14.2,23.7L835.2,719.6z"/>
</g>
<g>
	<polygon class="st1" points="703.2,684.5 718.3,701.4 704.7,705.9 674.9,710.3 657.3,704.4 645.7,683 	"/>
	<path class="st0" d="M674.6,713.9l-19.7-6.7l-15.1-27.9l65,1.7l19.7,22l-19,6.3L674.6,713.9z M659.7,701.5l15.5,5.2l28.7-4.3
		l8.3-2.7L701.6,688l-49.9-1.3L659.7,701.5z"/>
</g>
<g>
	<path class="st0" d="M439.6,296.6c-3.5,16.2-13.4,28.3-30.8,28.3c-25.5,0-29.1-23.7-29.1-38.8c0-26,11.1-62,42-62
		c17.2,0,25.3,9.8,24.8,27H499c-1-55-36.9-72.8-77.1-72.8c-61.4,0-97.8,49.4-97.8,108.8c0,49.1,25.3,83.5,77.6,83.5
		c75.1,0,89.3-55.3,92.5-74.1L439.6,296.6"/>
</g>
<g>
	<polyline class="st0" points="529.8,366.3 585.5,366.3 599.9,296.4 670.9,296.4 679.7,252.7 608.7,252.7 613.5,229.8 697.2,229.8 
		706.8,182.7 567.5,182.7 529.8,366.3 	"/>
</g>
<g>
	<path class="st0" d="M883.5,238.3c1-45.3-33.6-59.9-72-59.9c-36.4,0-75.8,19-75.8,60.4c0,30.6,21.2,42.4,43.2,49.9
		c25,8.5,43.5,10.3,43.5,23.6c0,12.1-13.4,17.8-24.3,17.8c-9.1,0-15.7-0.5-20.5-4.6c-4.6-4.6-6.8-10.8-6.8-20.8h-53.9
		c-2.3,46.8,35.1,66.1,76.6,66.1c39.2,0,81.4-20.8,81.4-65c0-21.9-10.6-39.4-42-50.7c-17.7-6.4-44.8-7.2-44.8-21
		c0-12.1,12.1-15,21.5-15c6.3,0,12.1,1,16.2,4.1c4.1,3.1,6.6,7.7,6.3,15.2L883.5,238.3"/>
</g>
</svg>
